# xmcd
#
# Track frame offsets: 
#        150
#        15550
#        36955
#        58332
#        78630
#        93042
#        116177
#        137120
#        152382
#        172847
#
# Disc length: 2562 seconds
#
# Revision: 2
# Processed by: cddbd v1.5.2PL0 Copyright (c) Steve Scherf et al.
# Submitted via: ExactAudioCopy v1.0b3
#
DISCID=780a000a
DTITLE=Various Artist - Mot Minh Trong Chieu Vang
DYEAR=1990
DGENRE=
TTITLE0=Ngoc Lan - Mot minh trong chieu vang
TTITLE1=Cong Hung - Tinh khuc thang sau
TTITLE2=Luu Hong - Buom trang (Nguoi hang xom)
TTITLE3=Kim Anh - Chuyen tinh khong suy tu
TTITLE4=Cao Lam - Ve tren noi xot xa
TTITLE5=Ngoc Lan - Dan trong dem vang
TTITLE6=Cong Hung - De quen con tim
TTITLE7=Thien Trang - Thuong anh
TTITLE8=Luu Hong - Thu sau
TTITLE9=Cong Hung - Em dep nhu mo
EXTD=
EXTT0=
EXTT1=
EXTT2=
EXTT3=
EXTT4=
EXTT5=
EXTT6=
EXTT7=
EXTT8=
EXTT9=
PLAYORDER=
